<svg width="697" height="136" viewBox="0 0 697 136" fill="none" xmlns="http://www.w3.org/2000/svg">
<g clip-path="url(#clip0_204_2)">
<g style="mix-blend-mode:darken">
<g style="mix-blend-mode:darken">
<g style="mix-blend-mode:darken">
<path d="M0 135.01H67.5L0 67.5V135.01Z" fill="#00CD69"/>
</g>
<g style="mix-blend-mode:darken">
<path d="M67.5 135.01H135.01V67.5L67.5 135.01Z" fill="#00CD69"/>
</g>
<g style="mix-blend-mode:darken">
<path d="M67.5 0L135.01 67.5V0H67.5Z" fill="#00CD69"/>
</g>
<g style="mix-blend-mode:darken">
<path d="M0 0V67.5L67.5 0H0Z" fill="#00CD69"/>
</g>
<g style="mix-blend-mode:darken">
<path d="M196.22 32.0498V43.2498H210.22L186.43 101.25H203.83L209.14 86.9998H238.83L244.23 101.25H262.23L233.82 32.0498H196.22ZM213.92 74.4198L223.84 47.8698L233.97 74.4198H213.92Z" fill="black"/>
</g>
<g style="mix-blend-mode:darken">
<g style="mix-blend-mode:darken">
<path d="M305.52 57.53C303.15 53.62 297.82 49.25 289.3 49.25C276.13 49.25 265.81 58.69 265.81 74.91C265.81 90.91 276.13 100.37 289.3 100.37C297.18 100.37 302.3 96.63 304.93 92.97V97.62C304.93 106.96 297.46 110.21 289.79 110.21C282.917 110.261 276.195 108.201 270.53 104.31V116.79C275.83 119.94 282.81 121.9 292.35 121.9C308.35 121.9 320.66 113.75 320.66 97.9V50.43H305.52V57.53ZM293.52 88.47C286.34 88.47 281.62 83.06 281.62 74.91C281.53 66.55 286.34 61.34 293.52 61.34C297.753 61.2672 301.846 62.8577 304.92 65.77V83.95C301.861 86.896 297.766 88.5197 293.52 88.47" fill="black"/>
</g>
<g style="mix-blend-mode:darken">
<path d="M355.459 61.8302L352.999 50.4302H329.409V61.0502H339.929V101.25H355.749V69.9902C358.009 66.3502 362.439 63.5002 370.599 63.5002C372.687 63.513 374.765 63.7783 376.789 64.2902V50.1402C375.386 49.5758 373.881 49.3069 372.369 49.3502C362.239 49.3502 356.739 55.3502 355.459 61.8302" fill="black"/>
</g>
<g style="mix-blend-mode:darken">
<path d="M410.22 49.25C393.81 49.25 381.72 59.87 381.72 75.89C381.72 91.91 393.81 102.43 410.22 102.43C426.44 102.43 438.63 91.91 438.63 75.89C438.63 59.87 426.44 49.25 410.22 49.25ZM410.22 90.05C402.65 90.05 397.54 84.15 397.54 75.89C397.54 67.63 402.65 61.62 410.22 61.62C417.79 61.62 422.81 67.51 422.81 75.87C422.81 84.23 417.69 90.03 410.22 90.03" fill="black"/>
</g>
<g style="mix-blend-mode:darken">
<path d="M477.579 49.25C474.674 49.162 471.79 49.7599 469.159 50.9952C466.529 52.2305 464.226 54.0685 462.439 56.36V29.79H446.619V101.25H461.759V94.37C464.249 98.29 469.469 102.43 477.579 102.43C490.749 102.43 501.079 92.6 501.079 75.89C501.079 59.18 490.749 49.25 477.579 49.25ZM473.349 90.05C469.304 90.0924 465.398 88.5779 462.439 85.8201V65.92C465.374 63.116 469.29 61.5725 473.349 61.62C480.629 61.62 485.249 67.22 485.249 75.87C485.249 84.52 480.629 90.03 473.349 90.03" fill="black"/>
</g>
<g style="mix-blend-mode:darken">
<path d="M558.68 88.47V69.11C558.68 56.82 549.24 49.25 534.01 49.25C524.57 49.25 517.79 51.31 512.77 54.36V66.75C518.233 62.979 524.712 60.9563 531.35 60.95C538.35 60.95 543.35 63.6 543.35 70.48V71.8C539.695 70.8399 535.929 70.3658 532.15 70.39C519.76 70.39 508.46 75.3 508.46 86.6C508.46 95.85 516.71 102.43 527.73 102.43C536.4 102.43 541.05 99.43 543.91 95.69C545.53 100.23 550.53 102.43 555.54 102.43C558.804 102.562 562.05 101.875 564.98 100.43V91.32C564.151 91.5652 563.294 91.6997 562.43 91.72C560.36 91.72 558.69 90.83 558.69 88.47H558.68ZM532.64 91.72C527.53 91.72 524.28 89.36 524.28 85.82C524.28 81.2 529.59 79.62 534.28 79.62C537.325 79.6198 540.354 80.0473 543.28 80.89V86.89C541.976 88.4503 540.334 89.6941 538.478 90.5273C536.623 91.3605 534.603 91.7615 532.57 91.7" fill="black"/>
</g>
<g style="mix-blend-mode:darken">
<path d="M608.719 49.2503C605.31 49.1915 601.935 49.9454 598.874 51.4495C595.814 52.9537 593.156 55.1649 591.119 57.9003L589.549 50.4303H565.949V61.0503H576.469V101.25H592.299V65.8602C594.559 63.4102 598.199 62.1303 602.129 62.1303C608.519 62.1303 612.129 65.2703 612.129 71.9603V101.25H627.949V67.4403C627.949 55.5403 619.699 49.2503 608.689 49.2503" fill="black"/>
</g>
<g style="mix-blend-mode:darken">
<path d="M695.91 101.1V90.64H688.62L676.44 73.14L692.45 50.43H676.66L663.79 68.91H656.78V29.79H640.96V101.25H656.78V80.22H663.9L677.85 101.25H678.31H695.91H696.01L695.91 101.1Z" fill="black"/>
</g>
</g>
</g>
</g>
</g>
<defs>
<clipPath id="clip0_204_2">
<rect width="696.01" height="135.01" fill="white"/>
</clipPath>
</defs>
</svg>
